# xmcd CD database file
# Copyright (C) 1997 Ti Kan
# 
# Track frame offsets:
#     150
#     9340
#     24305
#     38108
#     54018
#     82370
#     99138
#     110015
#     121268
#     134170
#     152663
# 
# Disc length: 2236 seconds
# 
# Revision: 1
# Processed by: cddbd v1.4b41PL1 Copyright (c) Steve Scherf et al.
# Submitted via: DiscPlay 4.0.3
# 
DISCID=8208ba0b
DTITLE=Big Joe Maher And The Dynaflows - Good Rockin Daddy
DYEAR=1900
DGENRE=
TTITLE0=Good Rockin' Daddy
TTITLE1=Cat Scratchin'
TTITLE2=Let's Go Jumpin'
TTITLE3=Hook, Line, And Sinker
TTITLE4=No Good Woman Blues
TTITLE5=Okeshemokeskepop
TTITLE6=Handclapin'
TTITLE7=You Know Yeah
TTITLE8=Don't Send Me Flowers
TTITLE9=Blow, Man, Blow
TTITLE10=Dynaflow
EXTD=Big Joe Maher - drums, vocals\nTom Principato - guitar, six string bass
EXTD=\nJeff Sarli - acoustic, electric bass\nLittle kevin Mckendree - piano\
EXTD=nDeanna Bogart - piano\nDaryl davis - piano\nBruce Ewan - harmonica\nJo
EXTD=e Stanley - tenor saxophone\nJerry Queen - tenor saxophone\nDerek Husto
EXTD=n - tenor, baritone saxophone
EXTT0=
EXTT1=
EXTT2=
EXTT3=
EXTT4=
EXTT5=
EXTT6=
EXTT7=
EXTT8=
EXTT9=
EXTT10=
PLAYORDER=
